<svg id="Livello_1" data-name="Livello 1" xmlns="http://www.w3.org/2000/svg" viewBox="0 0 141.73 141.73"><defs><style>.cls-1{fill:#f5df4d;}</style></defs><path class="cls-1" d="M70.84,129.17H16.61c-3.77,0-4-.27-4-4,0-21.87,0-43.75-.05-65.62,0-2.14.48-3.76,2.43-4.65,6.74-3.06,8.6-8.23,8-15.42-.67-7.71-.16-15.53-.14-23.3,0-3.24.39-3.61,3.61-3.61,23,0,45.92,0,68.87.06a5.2,5.2,0,0,1,3.48,1.47Q108.15,24.41,117.27,35a6.14,6.14,0,0,1,1.6,4.27c-1.24,7.44,1.31,12.69,8.19,15.83,1.8.82,2.16,2.36,2.15,4.25q-.08,32.94,0,65.89c0,3.65-.3,3.93-4.11,3.94ZM99,21.79v13.6h10c-.08,1.73-.14,3.13-.22,4.8-4,0-7.74-.07-11.5,0-2.42.06-3.44-.88-3.4-3.35.1-5.51,0-11,0-16.54,0-.95-.08-1.89-.12-2.74H27.58c0,15.3,0,30.38.05,45.47A3.55,3.55,0,0,0,29,65.45q16.18,12,32.51,23.91a3.83,3.83,0,0,0,2.9.41,22.37,22.37,0,0,1,12.79.15,4,4,0,0,0,3.09-.53q16.22-11.77,32.28-23.78a4.86,4.86,0,0,0,1.57-3.33c.16-5.24-.2-10.5.15-15.72s-.66-9.51-4.78-13.22C105.76,30,102.71,25.93,99,21.79Zm-74,102.3h91c-1.14-.91-1.86-1.51-2.62-2.08L80,97.41c-6.37-4.69-12-5-18.48-.44-8.37,5.84-16.55,12-24.76,18C33,117.81,29.29,120.8,25.05,124.09Zm58.3-30.7,40.66,30V63.44ZM17.61,123.06,57.69,92.87,17.61,63.36Zm4.85-67.49L19.11,58.1l3.35,2.4Zm96.85.07v4.89L122.62,58Z"/><path class="cls-1" d="M76.9,42.54l5.5-1V54.35c0,3.69.92,5.29,3.08,5.36s3.34-1.74,3.34-5.46c0-8.08-3.3-14.29-10.8-17.54-6.86-3-13.48-1.94-19.15,3.11a17.9,17.9,0,0,0,21.7,28.33c.59-.38,1.16-.79,1.87-1.28l3,3.51a21.22,21.22,0,0,1-15.71,5.38,22.73,22.73,0,0,1-6.77-44c13.92-5.36,29.54,4.66,30.46,19.55.08,1.26,0,2.53.12,3.79.26,3.87-1,7-4.62,8.71s-7,.56-9.92-2.41c-2.83,2.27-6.08,3.93-9.66,3a16.27,16.27,0,0,1-6.94-3.75c-3.87-3.71-4-9.82-.91-14.17C65,41.59,70.33,40.46,76.9,42.54Zm-6.1,3.94A6.79,6.79,0,0,0,64.18,53a6.91,6.91,0,0,0,6.76,6.73,6.83,6.83,0,0,0,6.59-6.59A6.71,6.71,0,0,0,70.8,46.48Z"/></svg>