<svg id="Livello_1" data-name="Livello 1" xmlns="http://www.w3.org/2000/svg" viewBox="0 0 141.73 141.73"><defs><style>.cls-1{fill:#f5df4d;}</style></defs><path class="cls-1" d="M126.05,66.56v8.62c-.07.3-.17.61-.21.92-.26,1.81-.41,3.63-.77,5.42a55.21,55.21,0,0,1-44.29,43.67c-1.86.34-3.74.57-5.6.86H66.56c-.31-.07-.62-.17-.93-.21-1.8-.26-3.63-.41-5.42-.77A55.25,55.25,0,0,1,16.54,80.78c-.34-1.86-.57-3.74-.86-5.6V66.56c.08-.31.17-.62.22-.93.25-1.8.4-3.63.76-5.42A55.25,55.25,0,0,1,61,16.54c1.86-.34,3.74-.57,5.61-.86h8.62c.3.08.61.17.92.22,1.81.25,3.63.4,5.42.76A54.47,54.47,0,0,1,110.9,32.81,54,54,0,0,1,125.19,61C125.53,62.81,125.76,64.69,126.05,66.56Zm-7,4.32a48.22,48.22,0,1,0-49,48.21A48.29,48.29,0,0,0,119.08,70.88Z"/><path class="cls-1" d="M91.31,102c-12.91-.54-23.59-4.46-32.79-12.15a51.18,51.18,0,0,1-18-31.07,67.43,67.43,0,0,1-.77-9.1,5.09,5.09,0,0,1,1.59-3.87L45,42.22A7.73,7.73,0,0,1,56,42a8.51,8.51,0,0,1,2.64,4.33c.61,2.47,1.37,4.89,2,7.36a7.75,7.75,0,0,1-2,7.54,6.77,6.77,0,0,1-1.14,1.13c-1.55,1-1.48,2.24-.86,3.85A31.47,31.47,0,0,0,76.86,85.55a1.44,1.44,0,0,0,1.78-.46c.58-.68,1.25-1.29,1.89-1.91a7.64,7.64,0,0,1,7.62-2q3.84,1,7.66,2.08a8.29,8.29,0,0,1,5.47,11.09,7.89,7.89,0,0,1-1.37,2c-.86,1-1.88,1.78-2.71,2.76C95.4,101.25,93.19,102.31,91.31,102Z"/></svg>