<svg id="Livello_1" data-name="Livello 1" xmlns="http://www.w3.org/2000/svg" viewBox="0 0 141.73 141.73"><defs><style>.cls-1{fill:#f5df4d;}</style></defs><path class="cls-1" d="M70.72,127c-4.4-5.54-8.71-10.79-12.81-16.19A199.25,199.25,0,0,1,39.74,82.51c-3.64-7-6.88-14.16-8.26-22A36.6,36.6,0,0,1,34.9,37.23c6.32-12.6,16.55-20.1,30.59-22.11a39.88,39.88,0,0,1,43.68,27.71c2.94,9.59,1.82,18.9-1.79,28.07a145.9,145.9,0,0,1-16.61,30.22C85.43,108.71,79.7,116,74.1,123.44A47.51,47.51,0,0,1,70.72,127Zm.17-9.76c2.56-3.32,5-6.39,7.37-9.55C86.61,96.49,94.48,85,100.16,72.1c3.19-7.24,5.47-14.65,4.1-22.75-1.65-9.77-6.48-17.57-14.81-22.92C76.88,18.35,62,19,50.12,28c-8.1,6.18-12.3,14.6-12.93,24.78-.42,6.68,1.62,12.82,4.23,18.78C48.75,88.28,59.52,102.77,70.89,117.26Z"/><path class="cls-1" d="M86.28,54.71A15.38,15.38,0,1,1,71,39.17,15.18,15.18,0,0,1,86.28,54.71Zm-24.52-.07a9.15,9.15,0,0,0,18.3-.08c-.16-5.65-4-9.08-9.28-9.12A8.89,8.89,0,0,0,61.76,54.64Z"/></svg>