<svg id="Layer_1" data-name="Layer 1" xmlns="http://www.w3.org/2000/svg" xmlns:xlink="http://www.w3.org/1999/xlink" viewBox="0 0 1200 570"><defs><style>.cls-1{fill:none;}.cls-2{opacity:0.76;}.cls-3{clip-path:url(#clip-path);}.cls-4{fill:#e6e6e6;}</style><clipPath id="clip-path"><rect class="cls-1" x="214.15" y="370.5" width="771.7" height="200"/></clipPath></defs><g class="cls-2"><g class="cls-3"><path class="cls-4" d="M541.12,521.89l8.27-9L505.87,478l-.21.26.45-1.35-4.95-6.25,40.6-34.84-2.64-3.46-1,.83.23-.24-10.76-9.71L491.9,465.47l.25.21a6.74,6.74,0,0,0-1-.1c-2.31,0-5.93,1.82-5.93,1.82l-42.24-34.82L440.3,436l.51.43-7.5,8.7,42.62,32.07.2-.26.2-.27-3.54-2.66,1.53-1.92,3.5,2.69L476.13,477l2.16,6.41L440.49,523l3,2.3,1.64-1.66-.23.24,7.57,7.19,24.47-26.65L474.06,534h-1.64l-1.64,4.4h3.29l.07,31.19,17.19,0,17.18,0-.07-31.18h3.3l-1.66-4.39h-1.65l-4.43-44,35,35.17,3-2.32-1.08-1.12Zm-66-28.69.93,1-2.68,3-1.12-1Zm-21,26.14,3-3.32,1.94,1.77-3,3.3Zm1.5,2.24-2.61,2.87-1.93-1.75,2.59-2.87Zm1.94-6.05,2.9-3.2,1.92,1.8-2.88,3.17Zm3.34-3.69,2.76-3,1.86,1.88-2.7,3Zm3.2-3.54,2.79-3.08,2,1.73L466,510.18Zm3.24-3.57,2.67-3,1.84,1.91-2.52,2.77Zm3.11-3.44,2.93-3.24,2,1.77-3.07,3.38Zm1.53-4.94-.22.24,1.13,1-2.9,3.2-1.19-1.23-.23.22ZM468.39,500l1.21,1.26-2.71,3L465.43,503Zm-3.19,3.23-.21.24,1.46,1.28-2.76,3-1.5-1.51-.23.23Zm-3.47,3.52,1.52,1.53-2.78,3.07-1.7-1.6Zm-3.2,3.24-.22.23,1.72,1.62-2.91,3.21-1.89-1.72ZM455,513.61l-.22.24,1.9,1.73-3,3.32-2.06-1.85Zm-3.62,3.67-.22.25,2.07,1.86-2.59,2.87-2.2-2Zm-6.05,6.13,2.89-2.92-.23.25,2.21,2-2.58,2.84Zm2.77,2.64,2.58-2.86,1.94,1.75-2.64,2.9Zm4.31,4.09-2-1.85,2.64-2.91,2,1.82Zm3.15-3.42-2-1.83,2.61-2.87,2,1.83Zm3.07-3.36-2-1.83,3-3.3,2.05,1.86Zm3.45-3.75-2-1.87,2.87-3.16,2,1.91Zm3.31-3.6-2-1.92,2.68-3,2,2Zm3.08-3.36-2-2,2.95-3.27,2.16,1.88Zm3.56-3.88-2.15-1.87,2.48-2.73,2,2.07Zm4.93-4.88-.24-.22-1.92,2.08-2-2.07,3.1-3.42,1.12,1,.22-.25Zm.32-3.28-.94-.84,1.14-1.25Zm.25-2.64-.24-.22-1.44,1.58-2-1.77,2.64-2.92.77.79.47-.46-.8-.82L478,493Zm.54-5.53-.25-.22-1.32,1.45-.91-.93-.24.24,2.95-3Zm-.61-24.79-.25-.2-1.36,1.7-3.27-2.6L474,464.7Zm-3.71-3.16-.27-.2-1.42,1.86-3.16-2.52,1.55-1.95Zm-27.94-18.35,3.24,2.58-1.47,1.95-3.27-2.53Zm-2,1.6L440.28,445,441.8,443l3.49,2.77Zm5.78,1.39,3.27,2.6-1.43,1.89-3.31-2.55Zm3.79,3,3.35,2.66-1.5,1.75L451.93,454Zm3.87,3.07,3.16,2.51-1.33,1.8L455.73,457Zm3.68,2.92,3.37,2.68-1.36,1.69-3.34-2.58Zm3.88,3.08,3.18,2.53-1.3,1.65-3.22-2.49Zm3.7,2.94,3.17,2.52-1.24,1.62-3.23-2.5Zm1.71-2.68-.26-.2-1.55,2-3.18-2.52,1.65-2.07Zm-3.59-3.05-.26-.21-1.66,2.08-3.39-2.69,1.68-2.27Zm-3.88-3.3-.26-.2-1.69,2.27-3.12-2.48,1.93-2.26-.29-.25Zm-3.64-3.1-1.95,2.28-3.39-2.69,1.9-2.51Zm-3.69-3.14-.26-.19-1.9,2.51L450,448.61l2-2.64Zm-3.68-3.13-.26-.2-2,2.65-3.25-2.58,2.09-2.79ZM448,442.62l-.26-.2-2.08,2.78-3.5-2.77,2.16-2.94Zm-6.72-5.72-.24-.2,3,2.57-.27-.19L441.67,442l-2.83-2.25Zm-2.91,3.37,2.88,2.28-1.53,2.08-3.07-2.37Zm-4.13,4.8,2-2.31,3.11,2.4-1.76,2.41Zm3.85,2.9,1.77-2.41,3.5,2.71-1.75,2.34Zm4,3,1.75-2.34,3.27,2.52-1.74,2.29Zm3.81,2.86,1.73-2.28,3.31,2.56-1.69,2.24Zm3.88,2.92,1.69-2.24,3.24,2.5-1.79,2.1Zm3.66,2.76,1.79-2.09,3.36,2.59-1.6,2.16Zm4.08,3.06,1.6-2.16,3.32,2.57-1.64,2.06Zm3.8,2.87,1.64-2.06,3.23,2.48-1.61,2Zm3.79,2.84,1.6-2,3.24,2.5-1.53,2Zm7.09,5.33L469,471.21l1.53-2,3.25,2.51Zm1.94-2.44L471,468.69l1.23-1.61,3.26,2.59Zm3.82,3.35.2-.25-3.5-2.7,1.23-1.54,3.44,2.74.23-.29Zm1.78-2.27-3.44-2.73,1.35-1.7,3.34,2.85Zm20.25-7.44.13-.3-2-.85,2-2.24,2.36,1.29Zm-.28.24L497,467.38s-.65-.33-1.57-.7l2.26-2.47Zm3.29-2.74,0-.06L500.69,461l2.2-2.41,2.47,1.9Zm2.55-2.12.2-.26-2.48-1.92,2.53-2.77,3,2.25Zm.7-5.44,3-3.25,2.74,2.25-2.94,3.08Zm22-18.14-2.57,2.7L523,436.59l2.42-2.66Zm-2.54-3.2,2.78-3,3,2.83-2.8,2.94Zm-.48,6.38-3.34,3.5-2.73-2.71,3.24-3.55Zm-3.79,4-2.41,2.52L516.19,444l2.63-2.88Zm-2.86,3-3,3.18-2.86-2.29,3-3.23Zm-3.49,3.66-2.71,2.84-2.75-2.26,2.62-2.86Zm-3.87,5,1.22-1.28.16.13Zm1.63-1.36.21-.25-.17-.15,2.72-2.85.59.47Zm3.61-3,.2-.25-.59-.48,3-3.17,1,.84Zm3.94-3.28.21-.26-1.06-.84,2.36-2.48,1.27,1.27Zm3-2.52.24-.24-1.31-1.3,3.34-3.5,1.75,1.7Zm4.27-3.55.23-.24-1.77-1.73,2.58-2.71,2.19,2Zm3.48-2.9.23-.24-2.21-2,2.79-2.93,2.56,2.4Zm6.59-5.48-3,2.47.23-.24-2.59-2.42,2.37-2.48Zm-3.45-3.11-2.36,2.47-3-2.84,2.25-2.46Zm-6.76-6.1,3.13,2.83-2.24,2.45-3-2.8Zm-2.53,3,3,2.79-2.78,3-2.9-2.63Zm-3.12,3.7,2.87,2.62-2.41,2.64-2.69-2.63ZM519.36,434l2.67,2.6-3.23,3.54-2.52-2.5Zm-3.51,4.15,2.5,2.48-2.67,2.93-2.63-2.1ZM512.62,442l2.61,2.09-3,3.23-2.48-2Zm-3.25,3.85,2.46,2-2.61,2.85-2.31-1.9Zm-2.89,3.41,2.3,1.89-3,3.27-2.24-1.69Zm-3.35,4,2.22,1.67-2.54,2.77L500.73,456Zm-2.83,3.34,2.07,1.59-2.27,2.49-2.22-1.22Zm-2.85,3.37,2.19,1.21-2.1,2.29-2.24-1Zm-2.6,3.07,2.22.95-2.18,2.39.24.22a17.5,17.5,0,0,0-2.6-.8Zm6.08,105.62-8.18,0,0-18.23,8.18,0Zm43-50.74-3.72-3.07,2.16-2.9,4.06,3.25Zm-20.61-21.19,3.51,2.8-2.1,2.52-3.53-2.91Zm-2.63,2-2.7-2.23,2-2.44,2.84,2.27Zm6.66,1.23,3.18,2.54-1.95,2.75-3.35-2.77Zm3.69,3,3.26,2.6-2.18,2.66-3-2.5Zm3.77,3,3.23,2.58-2.2,2.74-3.21-2.65Zm3.74,3,3.3,2.64-2.15,2.89-3.36-2.78Zm9.87,4.14-1.54,1.68-4.12-3.29,1.37-1.84Zm-4.81-3.86L542.25,511,539,508.34l1.44-1.79Zm-3.72-3-1.44,1.79-3.22-2.58,1.45-1.78Zm-3.72-3-1.46,1.78-3.29-2.63,1.34-1.89ZM532.24,500l-1.33,1.9-3.14-2.51,1.49-1.78Zm-3.5-2.8L527.25,499l-3.49-2.8,1.53-1.75Zm-4-3.18-1.54,1.75-2.85-2.28,1.47-1.81Zm-3.43-2.75-1.48,1.81-3.42-2.74,1.44-1.84Zm-4-3.19-1.44,1.85-3.07-2.45,1.53-1.79Zm-11.83-9.49,8.34,6.69-1.53,1.79L509,484.36l1.59-1.63-.47-.46L508.46,484l-3.61-2.88-.2.26ZM504,483.34l.56-1.68,3.45,2.76L506.5,486Zm2.75,2.85.24.23,1.54-1.58,3.42,2.73-1.82,2.14Zm6.65,6.44-.21.26-2.83-2.95.25.22,1.86-2.18,3.08,2.47-1.87,2.41Zm2.67-1.77,3.41,2.73-2,2.43-3.32-2.74Zm.84,5.89L515.18,495l1.89,1.56Zm.23.24.26.2.19-.24,2.69,2.22-.5.56Zm2.88,3,.24.22.53-.6,3.53,2.92-.86,1Zm3.66,3.81.26.22.89-1.07,3.4,2.8-1.13,1.6Zm3.65,3.79.27.19,1.14-1.61,3,2.47-1.55,1.9Zm3.07,3.19.26.21,1.57-1.93,3.21,2.65L533.54,514Zm3.39,3.52.25.21,1.91-2.38,3.38,2.79-2.16,2.9Zm3.85,4,2.2-2.95,3.66,3-2.83,3.08Z"/><path class="cls-4" d="M726.34,536.76l3.28.46.19-1.31c-8.18-1.17-16.51-2.24-24.74-3.15-6.5-.73-16.57-1.77-27.61-2.58-17.54-1.3-36-1.93-54.93-1.86s-37.4.73-54.93,2.1c-11,.87-21.11,2-27.6,2.7-5.55.64-11.14,1.36-16.7,2.13,0-5.34.1-11.26.1-11.26a.68.68,0,0,1,.74-.67c.74,0,0-4.3,0-4.3h1.11s.3-1-.31-1.35-2.22-.3-2.1-1c-.12.68-1.47.68-2.08,1s-.31,1.35-.31,1.35h1.11s-.73,4.3,0,4.3a.69.69,0,0,1,.74.68s.11,6,.15,11.36c-2.4.33-4.79.68-7.18,1l.2,1.3,3.28-.47V539l-3.47.5.2,1.3,3.27-.47v4.45h.71l-3.86.67,0,24.26,20.63,0V566.9a21.94,21.94,0,0,1,43.87-.09v2.71l10.52,0h.89v-.6c0-15.35,13.78-27.86,31-28.17,17.2.24,31.07,12.68,31.1,28v.6h.91l10.51,0v-2.71a21.94,21.94,0,1,1,43.87-.1v2.72l20.63,0-.06-24.27-3.86-.65h.71v-4.45l3.28.46.18-1.31-3.47-.48Zm-103.15-7.12q4.09,0,8.18,0v1.74c-2.72,0-5.44,0-8.18,0Zm-9.5.06c2.72,0,5.44-.05,8.18-.06v1.74q-4.1,0-8.18.06Zm-9.15.17q3.9-.09,7.83-.15v1.74c-2.62,0-5.22.08-7.82.14Zm-9.38.29c2.67-.1,5.37-.18,8.07-.25v1.73q-4.05.11-8.07.25Zm-9.38.42q4-.21,8.06-.37v1.73c-2.71.11-5.39.24-8.07.37Zm-9.39.54q4-.25,8.07-.47v1.73c-2.71.15-5.41.3-8.08.48Zm-9.46.68.78-.06c2.43-.19,4.89-.37,7.36-.54v1.74q-3.76.25-7.47.54l-.68,0Zm-18.46,1.71c2.36-.25,4.9-.5,7.59-.76v1.74c-2.68.25-5.23.51-7.58.75Zm-9.54,1.07,1.22-.15c2-.23,4.38-.5,7-.78v1.73c-2.69.29-5.1.56-7.16.8l-1.06.13Zm-9.55,1.18c2.75-.36,5.49-.7,8.24-1v1.73q-4.11.49-8.24,1Zm-1.32.17v1.73l-4.76.65v-1.73l4.76-.65m-8,1.1,2.4-.33v1.73l-2.39.33Zm0,3.06,2.39-.33a31.36,31.36,0,0,1-.12,3.78c-.14.5-.3.71-.44.79l-.23,0-.06,0v0l-1.53.25Zm3.58,3.95a2.16,2.16,0,0,1-.2-.51,31,31,0,0,1-.14-3.89l4.76-.65v4.24h.69c-1.73.26-3.43.53-5.12.81m5.74-.9v-4.32q4.13-.54,8.24-1v4.14H538c-2.92.38-5.8.79-8.63,1.21m11-1.53-1.47.19v-4.17l1.21-.14c2-.24,4.38-.5,7-.78v4h.66c-2.89.31-5.31.6-7.41.87m8.07-.94v-4.1c2.35-.25,4.9-.51,7.59-.76v4.05h.66c-3.12.29-5.84.56-8.25.82m17.14-1.56c-3,.23-5.75.46-8.24.69v-4.12c2.63-.24,5.39-.49,8.23-.72Zm0-5.47c-2.84.23-5.6.47-8.24.72v-1.74l8.23-.72Zm5.76,5.05c-1.54.1-3,.21-4.43.32l0-4.15.78-.07c2.44-.19,4.9-.36,7.37-.53v4.15h.26l-4,.28m5-.35v-4.16q4-.25,8.07-.48v4.11h.66c-3.07.17-6,.35-8.73.53m9.39-.57v-4.13c2.67-.14,5.35-.27,8.06-.37v4.05h.67l-8.73.45m9.37-.48v-4.08q4-.15,8.07-.25v4h.66q-4.51.18-8.73.37m45.35-.47q-8.47-.29-18-.44-9.49.2-18,.52v-4q3.9-.1,7.83-.15v3.62h1.31v-3.64c2.72,0,5.45-.06,8.19-.06v3.68h1.32V532.7c2.74,0,5.46,0,8.18,0v3.64h1.32v-3.62q3.93,0,7.83.12Zm0-5.29q-3.88-.07-7.82-.12v-1.73q3.93,0,7.83.11Zm9.4,5.64c-2.81-.12-5.71-.23-8.73-.33h.66v-4q4.06.09,8.07.22Zm0-5.4c-2.67-.08-5.37-.15-8.07-.21v-1.74q4,.09,8.07.22Zm9.39,5.84q-4.18-.21-8.73-.41h.67v-4.06c2.71.09,5.39.21,8.06.33Zm0-5.46q-4-.18-8.06-.33v-1.74c2.7.1,5.38.21,8.06.34Zm9.41,6c-2.75-.17-5.67-.34-8.74-.49h.66v-4.1c2.71.13,5.4.27,8.08.44Zm0-5.48c-2.67-.17-5.36-.31-8.07-.44v-1.74c2.71.13,5.41.27,8.08.44Zm9.48,6.11c-1.42-.11-2.89-.21-4.43-.31l-4-.26H670v-4.15c2.47.16,4.93.32,7.36.5l.78.06Zm0-5.48-.68,0c-2.47-.19-5-.35-7.47-.51V531c2.47.16,4.93.32,7.37.5l.78.06Zm9.56,6.22q-3.72-.32-8.23-.65v-4.15c2.84.22,5.6.45,8.24.68Zm0-5.44c-2.64-.23-5.4-.46-8.23-.68v-1.74c2.84.22,5.6.45,8.24.69Zm8.93,6.27c-2.42-.25-5.14-.51-8.26-.78H689v-4c2.69.25,5.24.49,7.6.73Zm0-5.42c-2.36-.24-4.9-.49-7.59-.73v-1.74l7.59.73Zm9.56,6.51-1.47-.18c-2.11-.26-4.53-.54-7.42-.84h.66v-4c2.63.26,5,.52,7,.74l1.22.14Zm0-5.49-1.06-.13c-2.06-.23-4.47-.49-7.16-.76v-1.74c2.63.27,5,.53,7,.75l1.21.14Zm9.58,6.79q-4.25-.62-8.63-1.18h.39v-4.13q4.11.47,8.24,1Zm0-5.65q-4.12-.52-8.25-1v-1.73c2.75.31,5.49.64,8.25,1Zm9.33,7.09q-4.27-.7-8.7-1.35h.7v-4.24c2.67.34,5.34.7,8,1.06Zm0-5.87c-2.66-.36-5.33-.72-8-1.06v-1.73c2.67.34,5.34.7,8,1.06Z"/><path class="cls-4" d="M982.6,529l-7.49-11.9v-6.37H974c.21-15.87-15.43-18.25-15.43-18.25l0-9.25,0-10.23h2.16v-2.77h-2.17v-7.7s-3-13.7-8.11-22.11-20.62-25-20.62-25v-1.21h-1.56V409s-3-3.85-5.9-4.2l0-6.38,1.68-2.76h-1.2v-4s-2.42-8.78-3.87-10.46v-4.57H918v-3.29h1.17v-.72H918V370.5h-.71v2.12h-1.22v.73h1.22v3.29h-1v4.57c-1.44,1.68-3.82,10.47-3.82,10.47v4h-1.21l1.69,2.76,0,6.38c-2.89.36-5.89,4.22-5.89,4.22v5.29h-1.56v1.2S890,432.13,885,440.56s-8,22.15-8,22.15v7.7h-2.16v2.77H877l0,10.22-107,.23,0-10.71h1.21L770,469.3l-.07-35.83,2.16-4v-5.05h-4.33L757,419.9l-10.69,4.59H742v5.05l2.17,4,.08,35.84L743,473h1.21l.2,96.7,240.4-.5-.07-36.68h1.08V529ZM756.06,507.7l0,11h-5.72l0-11h-.71c.06-1.36,3.55-9,3.55-9s3.52,7.59,3.59,9ZM756,483l0,11h-5.72l0-11h-.71c.06-1.36,3.55-9,3.55-9s3.52,7.58,3.59,8.94Zm-3.07-16.48,0-15.24h-1c.08-1.89,4.93-12.46,4.93-12.46s4.9,10.55,5,12.44h-1l0,15.25h-7.94Zm10.91,41.14,0,11h-5.71l0-11h-.72c.07-1.36,3.56-9,3.56-9s3.52,7.59,3.58,8.95ZM763.8,483l0,11h-5.71l0-11h-.72c.06-1.36,3.55-9,3.55-9s3.52,7.58,3.59,8.95Zm18.9,69.08h-4.57l0-22.25s1.43-5.17,2.27-5.06c.84-.12,2.3,5.05,2.3,5.05Zm13.52-5h-1.38v4.57h1.38v2.17h-1.39l0,14.31-9.38,0,0-14.31h-1.38v-2.16h1.38v-4.57h-1.38V545h2.47L789,532.7H787.9s.82-6.38,2.21-6.44,2.24,6.43,2.24,6.43H791.2L793.75,545h2.47ZM791.66,501a4.47,4.47,0,1,1,4.48,4.46,4.49,4.49,0,0,1-4.48-4.46m10.53,51h-4.57l0-22.25s1.43-5.18,2.27-5.06c.85-.12,2.3,5,2.3,5Zm30.75-2.65h-6.86l0-19.78s1.53-4,3.42-4,3.44,4,3.44,4Zm-3.7-44a4.47,4.47,0,1,1,4.46-4.48,4.47,4.47,0,0,1-4.46,4.48m36.44,43.92h-6.86l0-19.79s1.52-4,3.41-4,3.44,4,3.44,4Zm-3.7-44a4.47,4.47,0,1,1,4.46-4.47,4.47,4.47,0,0,1-4.46,4.47M889.67,490c-2.59,0-4.7-2.54-4.7-5.67s2.09-5.69,4.68-5.69,4.69,2.54,4.7,5.67-2.09,5.69-4.68,5.69m11.73-28.35c.15-17,3.57-28.5,6.42-35.19,3.1-7.3,6.13-10.53,6.26-10.67l.79.75c-.13.13-12.1,13.1-12.39,45.12Zm16.38,28.29a5.68,5.68,0,1,1,5.67-5.69,5.68,5.68,0,0,1-5.67,5.69m15.09-28.34c-.42-32.07-12.45-44.94-12.57-45.07l.78-.75c.13.13,3.18,3.35,6.31,10.63,2.87,6.69,6.34,18.22,6.57,35.17Zm13.32,28.29c-2.58,0-4.69-2.54-4.7-5.68s2.09-5.68,4.68-5.69,4.7,2.54,4.7,5.67-2.09,5.69-4.68,5.7"/><path class="cls-4" d="M434.87,491.52a10.12,10.12,0,0,0-2.31-4.23,24.8,24.8,0,0,0-8-6.16,72.46,72.46,0,0,0-8.44-3.41h.32V477a11.65,11.65,0,0,0-.53-1.74,13.55,13.55,0,0,0-2.15-3.36,20.91,20.91,0,0,0-4.81-4.31,41.86,41.86,0,0,0-8-4.07c-3.08-1.28-6.28-2.43-9.51-3.42l-1.85-.59,2.45-2.2v-.79l-6.89,0v.31l-120.72-.44v-.63l120.72.44v-2.14h.95V452.4h-.63v-1.27h-.64l0-11.09,3.67-6.56v-.87h-3l0-6.58h-.31l.1-1.78a.15.15,0,0,0,0-.07l-.35-2a.3.3,0,0,0-.13-.21l-2-1.25-.06-.06-.65-.73a.3.3,0,0,0-.22-.1h-2.47a.31.31,0,0,1-.3-.28l-.05-.73a.3.3,0,0,1,.08-.24l1.16-1.15a.29.29,0,0,1,.22-.09h1.15l1.76.45a.3.3,0,0,1,.19.14l.57,1a.26.26,0,0,0,.09.09l1,.71a.3.3,0,0,0,.35,0l.21-.15a.31.31,0,0,0-.05-.51l-.16-.08a.29.29,0,0,1-.17-.27v-.57a.26.26,0,0,0-.07-.19l-.83-1a.24.24,0,0,0-.13-.09l-2.42-.82a.37.37,0,0,0-.18,0l-1.31.35-.08,0-1.47.92-.05,0-1.08.41a.31.31,0,0,1-.28,0l-.92-.67a.3.3,0,0,1-.12-.17l-.44-1.72a.19.19,0,0,0,0-.08l-.88-1.45a.3.3,0,0,1,.09-.4l.92-.61.81-.48a.31.31,0,0,0,.15-.26v-1.93a.31.31,0,0,0-.3-.3h-.73a.29.29,0,0,0-.21.09l-.72.71a.25.25,0,0,1-.14.08l-1.24.35h0l-1.06.16a.28.28,0,0,0-.23.19l-.6,1.61a.16.16,0,0,0,0,.1v4.59a.3.3,0,0,1-.49.23l-.55-.46,0,0-.67-.42a.33.33,0,0,0-.16-.05h-1.26a.27.27,0,0,1-.17-.06L367.6,416a.3.3,0,0,1-.12-.22l-.17-1.62a.28.28,0,0,0,0-.12l-.44-.75a.31.31,0,0,0-.28-.14l-.83.06a.29.29,0,0,0-.28.29v3.27l-.37-.67a.26.26,0,0,0-.16-.13l-1.13-.41a.28.28,0,0,1-.16-.14l-.68-1.29a.2.2,0,0,1,0-.11l-.62-7.92a.29.29,0,0,0-.29-.27.31.31,0,0,0-.31.3l0,9a.3.3,0,0,0,.08.2l.66.76.05,0,1.1.78s0,0,.05,0l1.76.8.06,0,3.68,2.87a.3.3,0,0,1,.12.24v1.46a.29.29,0,0,1-.2.28l-1.32.46a.29.29,0,0,0-.16.15l-.91,1.8v0l-.4.95a.32.32,0,0,1-.28.19h-.44a.3.3,0,0,0-.29.2l-.42,1.33-.06-.07H363l-.89,3.87,0-5.54h-1.58l-1.2,1.82v3.64H358.1l0-4-12.39-.05v0l1.29-.64a.45.45,0,0,0,.25-.4v-1a.48.48,0,0,1,.06-.24l.67-1.11a.45.45,0,0,1,.39-.21H350a.44.44,0,0,0,.35-.17l.79-1a.47.47,0,0,1,.36-.18.46.46,0,0,1,.45.46v.81a.46.46,0,0,1-.11.3l-.84.91,0,0-.95,1.29a.44.44,0,0,0-.09.27v.18a.45.45,0,0,0,.21.38l.4.25a.48.48,0,0,0,.33.06l.72-.16a.46.46,0,0,0,.35-.44v-.56a.44.44,0,0,1,.08-.25l.65-1a.34.34,0,0,0,.06-.15l.56-2.36a.34.34,0,0,0,0-.1v-1.23a.46.46,0,0,0-.45-.45H350.7a.45.45,0,0,1-.45-.52l.12-.71v0l.06-.54a.44.44,0,0,1,.45-.4h.28a.43.43,0,0,1,.39.24l.29.52a.45.45,0,0,0,.49.23l.15,0a.44.44,0,0,0,.36-.46l0-.95a.45.45,0,0,0-.31-.4l-1.65-.56-.14,0H350a.46.46,0,0,1-.45-.46v-2a.44.44,0,0,1,.11-.29l1-1.15A.46.46,0,0,1,351,413h2.43a.45.45,0,0,0,.43-.59l-.34-1.09a.42.42,0,0,0-.17-.23l-1.4-1a.44.44,0,0,1-.15-.18l-.46-1a.46.46,0,0,0-.19-.2l-.77-.45a.45.45,0,0,0-.64.21l-.45,1a.57.57,0,0,1-.08.13L348,410.82a.35.35,0,0,0,0,.08l-1.5,2.5a.36.36,0,0,0,0,.09l-.64,1.9a.59.59,0,0,0,0,.14v1.21a.42.42,0,0,1-.09.27l-1.33,1.76s0,.05,0,.08l-.7,1.48a.44.44,0,0,1-.16.17l-1.41,1-.05,0-2.07,1.07a.47.47,0,0,0-.18.16l-.64,1a.44.44,0,0,0-.07.24v1.32a.47.47,0,0,0,0,.17l.43,1,0,.06.46.74,0,0h-3.38v-1.57l1.06-1,.38-1.09a.6.6,0,0,0-.33-.76l-.14-.07-.29-1.53,1.06-1.15,1.44-1.15,1-.66.29-.67.13-1a.64.64,0,0,1,.51-.52h.07a.62.62,0,0,1,.71.54l0,.22-.48.77.09.86.71.33a.42.42,0,0,0,.53-.17l.59-1-.48-2-.66-1.15h-1.63l-.68,1-1.25-.1-1.24-1-.45-.56a.63.63,0,0,1,0-.79l.24-.28.86.4a.61.61,0,0,0,.69-.12l.37-.37v-2.3l-.57-1.54v-.5a.62.62,0,0,0-.86-.58L338,408l-.57.95-1,.77-1.25,1.43-1.25,1.63-2.31.37L330,412l-1.06-.87-.15-.45a.61.61,0,0,1,.21-.67l.77-.61A.6.6,0,0,0,330,409v-.78a.6.6,0,0,0-.19-.44l-.38-.35a1,1,0,0,0-1.37,0l-.43.37a.58.58,0,0,0-.22.46v2l-.77.38-1.15,1v2l.67.86-.2,1.35-.3.37a.6.6,0,0,1-.94,0l-.57-1.06.57-1.25v-2.11l-.57-1.34-.09-1.25.2-1.91-.13-.72a.41.41,0,0,0-.41-.34H323a1.5,1.5,0,0,0-.59.1l-.42.15a.42.42,0,0,0-.27.48l.39,1.76.38,1-.15.21a.6.6,0,0,1-.81.16l-.48-.28-.76-1-.76-1.92.49-2,.7-1.71a.62.62,0,0,1,.6-.38l2,.09,3.35.39v-.48L321,401.55h-.61a.6.6,0,0,0-.53.3l-.11.18-.58,1.24-.93,2.39a.54.54,0,0,0,0,.22v1.32a.54.54,0,0,0,.11.35l1,1.48,1.62,2.5v3.58a.64.64,0,0,1-.08.3l-.54.93a.61.61,0,0,1-.46.3h-.07a.61.61,0,0,1-.65-.41l-.41-1.17-1.23-2.6v-2l-1.78-1.08a.38.38,0,0,1-.18-.23l-1-3a.44.44,0,0,0-.12-.18l-1.13-1.06a.44.44,0,0,0-.29-.11h-.86a.44.44,0,0,0-.35.18l-.35.49a.47.47,0,0,0-.7.52l.21.73.08,1.81a.42.42,0,0,0,.18.32l1.28.91a.43.43,0,0,1,.18.34v1.52l.56.65a.42.42,0,0,1-.32.69.41.41,0,0,0-.36.21l-.6,1a.42.42,0,0,0-.06.21v.34a.42.42,0,0,1-.62.36l-1.13-.62a.61.61,0,0,0-.67,0l-.65.51-.58,1.54v1l.24.13a.41.41,0,0,0,.62-.36v-.5a.61.61,0,0,1,.62-.61h.35a.64.64,0,0,1,.47.21l1,1.14,1.15,1.15,1.05.69a.6.6,0,0,1,.28.52v1.2l.35,1.13a1.73,1.73,0,0,0,.42.7l.58.58a.64.64,0,0,1,.18.43v3.33h-3.83v0l.46-.74,0-.06.44-1a.57.57,0,0,0,0-.18v-1.31a.48.48,0,0,0-.07-.24l-.63-1a.37.37,0,0,0-.18-.17l-2.06-1.09-.05,0-1.41-1a.52.52,0,0,1-.15-.18l-.69-1.48a.22.22,0,0,0-.05-.08l-1.31-1.77a.44.44,0,0,1-.09-.27v-1.22a.78.78,0,0,0,0-.14l-.62-1.9-.05-.09-1.47-2.51-.06-.08-1.16-1.25a.57.57,0,0,1-.08-.13l-.43-1a.46.46,0,0,0-.64-.22l-.78.45a.37.37,0,0,0-.19.2l-.47,1a.38.38,0,0,1-.15.18l-1.41,1a.48.48,0,0,0-.17.23L298,412.2a.45.45,0,0,0,.43.59h2.43a.46.46,0,0,1,.35.16l.95,1.16a.44.44,0,0,1,.11.29v2a.45.45,0,0,1-.45.45h-.68l-.14,0-1.66.55a.44.44,0,0,0-.31.4l-.06.94a.46.46,0,0,0,.36.47l.15,0a.44.44,0,0,0,.5-.22l.28-.52a.45.45,0,0,1,.4-.23h.28a.44.44,0,0,1,.45.41l.05.54v0l.1.72a.44.44,0,0,1-.44.51h-2.19a.46.46,0,0,0-.46.45v1.22a.34.34,0,0,0,0,.1l.54,2.37a.47.47,0,0,0,.06.15l.64,1a.44.44,0,0,1,.08.25v.56a.45.45,0,0,0,.35.44l.71.16a.45.45,0,0,0,.34-.05l.4-.25a.44.44,0,0,0,.21-.38v-.18a.47.47,0,0,0-.08-.26l-1-1.31,0,0-.83-.92a.46.46,0,0,1-.11-.3v-.81a.45.45,0,0,1,.45-.45.46.46,0,0,1,.36.17l.78,1a.45.45,0,0,0,.35.18h1.64a.45.45,0,0,1,.38.22l.67,1.12a.46.46,0,0,1,.06.23v1a.45.45,0,0,0,.25.41l1.28.65v0l-14.23-.05v4h-1.27l0-3.64-1.19-1.83H287.7l0,5.54-.86-3.88h-1.29l-.61-1.66a.47.47,0,0,1,0-.33l.27-.72a.47.47,0,0,0,0-.33l-.57-1.55a.35.35,0,0,0-.12-.19l-1.11-1-.08-.1-.55-.9a.47.47,0,0,1,.05-.56l.41-.46a.6.6,0,0,1,.08-.08l.91-.65a.45.45,0,0,0,.15-.19l.69-1.44a.42.42,0,0,0,0-.16l.07-.81a.51.51,0,0,1,.25-.38l.39-.22a.47.47,0,0,0,.25-.41v-1.48a.46.46,0,0,0-.2-.4l-.78-.52a.49.49,0,0,0-.36-.07l-.62.12a.51.51,0,0,0-.24.13l-.43.43a.53.53,0,0,0-.15.34v.11a.47.47,0,0,1-.55.47l-.76-.11h-1.18a.47.47,0,0,1-.48-.48v-3.2a.48.48,0,0,0-.2-.4l-.69-.48a.37.37,0,0,0-.14-.07l-.84-.26h-.08l-1.4-.18a.67.67,0,0,1-.18-.07l-1.72-1a.42.42,0,0,0-.24-.07H274a.48.48,0,0,0-.47.41l-.11.72a.48.48,0,0,0,.11.38l.79,1,.05.05,1.12,1,.52.52a.48.48,0,0,1,0,.68l-.81.81L274,414.6l0,0-1.3,1.47-.06.08-.29.52a.47.47,0,0,1-.5.24l-1.37-.23h-.05l-2-.56-.12,0h-1.55a.42.42,0,0,0-.22.05l-1.14.56a.4.4,0,0,0-.17.15l-1,1.28a.75.75,0,0,0-.07.12l-.31.82a.48.48,0,0,0,.45.65h.27a.48.48,0,0,0,.48-.47.58.58,0,0,1,0-.19l.52-1.24a.49.49,0,0,1,.45-.3h2.31a.46.46,0,0,1,.27.09l1.59,1.12a.49.49,0,0,1,.2.39v3.06a.48.48,0,0,0,.6.47l.48-.13a.49.49,0,0,0,.36-.46v-1.84a.47.47,0,0,1,.48-.48h.1a.47.47,0,0,1,.17,0l1,.41a.43.43,0,0,1,.2.15l1.46,1.81a.43.43,0,0,1,.1.24l.15,1.13a.45.45,0,0,1-.07.32l-.37.6,0,0-.67,1.41.84-.41.06,0,.82-.55a.49.49,0,0,0,.21-.4v-.8h.3a.47.47,0,0,1,.32.12l.59.52.07.07.44.6a.46.46,0,0,1,.1.29v.93a.47.47,0,0,0,.22.4l.93.63h-.07l-9.82,0h-.56V431h-1.58v-3.64l-1.34-1.75h-1.66l0,6.58-3,0V433l3.62,6.59,0,11.09h-.63V452h-.63v1.67h1v2.46l-6.89,0v.79l2.43,2.21-1.85.58c-3.24,1-6.46,2.1-9.54,3.35a41.38,41.38,0,0,0-8,4,20.79,20.79,0,0,0-4.83,4.27,13.35,13.35,0,0,0-2.17,3.35,9.41,9.41,0,0,0-.55,1.73v.7h.26a72.26,72.26,0,0,0-8.46,3.35,24.86,24.86,0,0,0-8,6.1,10.21,10.21,0,0,0-2.34,4.22,8,8,0,0,0,.19,5c.59,1.52,2.87,2.52,2.87,2.52L217.43,524l-.56.23-.12,12,.63-.26v.27l-.12,33.5h1l.12-34.14.88-.31-.13,34.45h2l.13-35.08h0c.38-.1.76-.2,1.14-.28l-.13,35.37h3.47l.12-36c1.6-.19,3.08-.26,4.46-.3l-.13,36.31h3.37l.14-36.51c.82-.08,2.85-.23,7.81-.49v-.19l-.13,37.22h3.51L245,532.6l3.1-.15,7.3-.34-.14,37.75H259l.14-37.92h2.93v-1.87h-.71v-2.46h1l0-6.88-6-4.46,5.11,0a2.62,2.62,0,0,1,.33-1.88.91.91,0,0,1,.52-.31v-3h-1.31l1.87-2.79.15-38.53c-10.8,2.64-19.09,4.51-24.16,5.65-.46.11-2.43.55-5.23,1.44v-.47a10.65,10.65,0,0,1,.51-1.6,12.64,12.64,0,0,1,2.08-3.19,20.53,20.53,0,0,1,4.7-4.15,41.2,41.2,0,0,1,7.88-3.95c3.07-1.25,6.26-2.37,9.49-3.34l2-.63-.1-.3,3.07,2.79,0,5.07h-1.26v1.26l1.31,1.32h.35l-.14,38.83-1.32,2H263l0,4.22-.34,0a.37.37,0,0,0-.33.12c-.32.37-.2,1.39-.14,1.72l.08.38h-3.94l4.73,3.5,0,7.84h-1v1.19h.72V532h-.32l-.13,37.88L293,570l.14-40.16H294v-1.42h-1.35l0-8h2.13l.89-3.64h-2.9l0-9.16a29.6,29.6,0,0,1,28.85-29.47l-.52-2.25-.43-1.23-.28-2.75a35,35,0,0,0-33.81,33l-.37,0,0,5.49-17-.06.15-40.8h.71v-1.92l15.52.06v1.92h.72l-.12,32.6a35.87,35.87,0,0,1,34.09-30.93l-.24-1.36-1-1v-2.56l11.26,0V469l-1,1-.25,1.36A35.85,35.85,0,0,1,363,502.49l.12-32.6h.71V468l15.52.06V470h.71l-.15,40.8L363,510.69V505.2l-.37,0A35,35,0,0,0,329.09,472l-.31,2.82-.42,1.14-.55,2.25a29.57,29.57,0,0,1,28.64,29.68l0,9.16h-2.9l.86,3.65h2.13l0,8h-1.34V528h.71l0-6.73h-2l-1.16-4.92,3.07,0,0-8.53a29.07,29.07,0,0,0-28.16-29l-.05.21c0,.06-.57,1.25-2.88,1l-.51,0c-1.88,0-2.33-1-2.36-1.08v-.05l0-.17a29.08,29.08,0,0,0-28.36,28.85l0,8.53h3.07l-1.2,4.91h-2l0,6.73H294v.32h1.19v1.34l1.19,1.27L295,570l6.8,0-.88-39.53,1.11-.87V528h-.71l0-8.16H302l.72-2.45h-.87l-.71-1.83v-2.85h1.11l-1.1-2,0,0a22.07,22.07,0,0,1,22.14-22h2.74a22.06,22.06,0,0,1,22,22.14l0,0-1.12,2h1.11v2.85l-.72,1.82h-.87l.71,2.46h.63l0,8.16h-.71v1.66l1.11.87L347,570.19l6.81,0-1-39.29,1.19-1.26v-1.35h1.19v1.75H356l-.15,40.15,30.73.12.14-37.89h-.19v-2.54h.71v-1.19h-1l0-7.84,4.75-3.47h-3.93l.08-.38c.1-.5.16-1.4-.13-1.72a.37.37,0,0,0-.33-.12l-.34,0,0-4.22h.75l-1.3-2,.14-38.82h.23l1.32-1.31v-1.27h-1.26v-4.75l-122.93-.45v-.64l122.94.45v.32l3.08-2.77-.1.3,2,.65c3.21,1,6.4,2.13,9.46,3.41a40.29,40.29,0,0,1,7.84,4,20.11,20.11,0,0,1,4.67,4.17,12.78,12.78,0,0,1,2.06,3.21,10.21,10.21,0,0,1,.5,1.6v.5c-2.81-.93-4.8-1.39-5.27-1.5-5-1.17-13.25-3.09-23.94-5.79l-.14,38.49,1.85,2.8H387v3a.94.94,0,0,1,.51.31,2.64,2.64,0,0,1,.33,1.88l5.1,0-6.05,4.41,0,6.89h1v2.46h-.71v1.88h2.75l-.14,37.93h3.69l.14-37.75,7.3.39,3.09.18h0l-.13,37.22h3.51l.13-37.22v.19c5,.3,7,.46,7.82.55l-.14,36.51h3.37l.13-36.3c1.39.05,2.87.13,4.46.33h0l-.13,36h3.46l.13-35.37c.37.09.75.18,1.14.29h0l-.13,35.09h2.05L429.8,536c.3.11.6.21.87.32l-.13,34.14h.95l.12-33.5v-.27l.63.27,0-12-.55-.24.09-25.82s2.29-1,2.89-2.5a8,8,0,0,0,.23-5M377.22,427a.36.36,0,0,1-.11-.16l-.53-1.79a.2.2,0,0,1,0-.07l-.08-1.22a.34.34,0,0,1,0-.17l.67-1.15a.3.3,0,0,1,.19-.14l1.85-.43h3.14a.27.27,0,0,1,.12,0l1.35.59a.3.3,0,0,1,.16.19l.71,2.33,0,.07.55.92h-1.35l-1.35,1.74v3.64H381v-3.72h-4.58l0,0H378Zm-14,12.81,17,.06,0,10.35-16.94-.06Zm-73.9-1,35.36.13H325l35.36.13,0,13.83L325,452.78h-.3l-35.36-.12Zm-19.83.67,16.95.06,0,10.35-16.95-.06ZM219,523.3v.12l-.58.22h0l.1-27.66a8.46,8.46,0,0,1,.52-.76l.07-.08Zm3.48-1.1h0l-1.14.37s.11-29.51.11-29.6l-.14.1.14-.1h0c.39-.28.77-.53,1.14-.76v-.16Zm7.93-2.06c-.57.11-1.12.23-1.68.36-1,.21-1.9.45-2.78.68l.11-30.63c1.53-.51,3-1,4.46-1.41V489Zm14.83-34.75,0,.06.31-.06c3.42-.8,6.79-1.52,10.08-2.19l-.13,34.23v.08l-8.41.76-2,.18Zm-11.34,2.77c3.09-.85,5.81-1.5,7.83-2l-.12,32.57h0c-3.52.33-5.93.58-7.81.83v0Zm145.89,80.73-16.95-.07.14-38.63h.72v-1.83l15.52.06v1.82h.71Zm-110.54-39h.72V528l15.52.06v1.82h.72L286,568.55l-16.95-.07ZM404,519l-2-.2-8.41-.81v-.09l.13-34.22q4.92,1,10.06,2.26l.31.06V486Zm11.34,1.22v0c-1.88-.26-4.29-.53-7.81-.89h0l.12-32.58c2,.48,4.73,1.15,7.82,2Zm7.82,1.65c-.88-.24-1.81-.48-2.78-.7-.56-.14-1.11-.25-1.68-.37l.11-31.12v.11c1.44.45,2.94.93,4.46,1.45Zm4.59,1.43c-.35-.13-.73-.25-1.14-.39l.12-30.15V493c.36.23.75.49,1.13.77h0l.14.1-.14-.1c0,.09-.11,29.61-.11,29.61m2.92,1.09h0l-.58-.23v-.12l.1-28.16.06.08a6.92,6.92,0,0,1,.52.77l-.1,27.66Z"/><path class="cls-4" d="M324.7,479.4h.06c1.71.17,2.19-.52,2.26-.63l.74-3.06.41-1.12.32-3,.35-1.91.93-.93v-1.66l-10,0v1.67l.92.93.33,1.89.3,3.05.42,1.16.71,3c.06.12.53.8,2.24.65"/></g></g></svg>